<svg width="900" height="1380" viewBox="0 0 900 1380" fill="none" xmlns="http://www.w3.org/2000/svg">
  <defs>
    <filter id="shadow" x="70" y="10" width="760" height="1320" filterUnits="userSpaceOnUse" color-interpolation-filters="sRGB">
      <feDropShadow dx="0" dy="18" stdDeviation="18" flood-color="#120720" flood-opacity="0.35"/>
    </filter>
    <linearGradient id="shell" x1="160" y1="40" x2="740" y2="1240" gradientUnits="userSpaceOnUse">
      <stop stop-color="#7C3AED"/>
      <stop offset="0.5" stop-color="#5B21B6"/>
      <stop offset="1" stop-color="#4C1D95"/>
    </linearGradient>
    <linearGradient id="bezel" x1="250" y1="120" x2="650" y2="510" gradientUnits="userSpaceOnUse">
      <stop stop-color="#E8E7DA"/>
      <stop offset="1" stop-color="#B8B7AB"/>
    </linearGradient>
    <linearGradient id="screen" x1="280" y1="180" x2="620" y2="450" gradientUnits="userSpaceOnUse">
      <stop stop-color="#E0F8D0"/>
      <stop offset="1" stop-color="#9BBC0F"/>
    </linearGradient>
    <clipPath id="screenClip">
      <rect x="275" y="185" width="350" height="300" rx="10"/>
    </clipPath>
    <style>
      .pixel { font-family: "Courier New", monospace; }
      .small { font-size: 22px; }
      .mid { font-size: 26px; }
      .big { font-size: 34px; font-weight: 700; }
      .badge { font-size: 18px; font-weight: 700; letter-spacing: 1px; }
    </style>
  </defs>

  <rect width="900" height="1380" fill="#0F172A"/>
  <text x="450" y="68" text-anchor="middle" class="pixel mid" fill="#E9D5FF">JANAEL OLIVEIRA // PROFILE CARTRIDGE</text>

  <g filter="url(#shadow)">
    <rect x="160" y="90" width="580" height="1180" rx="48" fill="url(#shell)"/>
    <rect x="180" y="110" width="540" height="1140" rx="38" stroke="#C4B5FD" stroke-opacity="0.26" stroke-width="4"/>
    <rect x="248" y="150" width="404" height="408" rx="24" fill="url(#bezel)"/>
    <rect x="275" y="185" width="350" height="300" rx="10" fill="url(#screen)" stroke="#0F380F" stroke-width="4"/>

    <circle cx="278" cy="165" r="8" fill="#FE5F55"/>
    <circle cx="302" cy="165" r="8" fill="#F0B429"/>
    <circle cx="326" cy="165" r="8" fill="#2ECC71"/>
    <text x="607" y="171" text-anchor="end" class="pixel small" fill="#5B21B6">boot.seq</text>

    <g clip-path="url(#screenClip)">
      <g opacity="1">
        <set attributeName="opacity" to="0" begin="5.2s" fill="freeze" />
        <text x="292" y="224" class="pixel small" fill="#0F380F" opacity="0">
          &gt; init cartridge
          <set attributeName="opacity" to="1" begin="0.2s" fill="freeze" />
        </text>
        <text x="292" y="252" class="pixel small" fill="#0F380F" opacity="0">
          loading trainer card.. ok
          <set attributeName="opacity" to="1" begin="0.7s" fill="freeze" />
        </text>
        <text x="292" y="280" class="pixel small" fill="#0F380F" opacity="0">
          loading JavaScript... ok
          <set attributeName="opacity" to="1" begin="1.2s" fill="freeze" />
        </text>
        <text x="292" y="308" class="pixel small" fill="#0F380F" opacity="0">
          loading Java......... ok
          <set attributeName="opacity" to="1" begin="1.7s" fill="freeze" />
        </text>
        <text x="292" y="336" class="pixel small" fill="#0F380F" opacity="0">
          loading TASY bridge.. ok
          <set attributeName="opacity" to="1" begin="2.2s" fill="freeze" />
        </text>
        <text x="292" y="364" class="pixel small" fill="#0F380F" opacity="0">
          loading data quests.. ok
          <set attributeName="opacity" to="1" begin="2.7s" fill="freeze" />
        </text>
        <rect x="294" y="392" width="0" height="14" rx="7" fill="#306230">
          <animate attributeName="width" from="0" to="286" dur="1.1s" begin="3.1s" fill="freeze" />
        </rect>
        <text x="292" y="436" class="pixel mid" fill="#0F380F" opacity="0">
          READY TO SUMMON
          <set attributeName="opacity" to="1" begin="4.1s" fill="freeze" />
        </text>
      </g>

      <g opacity="0">
        <set attributeName="opacity" to="1" begin="5.0s" fill="freeze" />
        <set attributeName="opacity" to="0" begin="6.15s" fill="freeze" />
        <circle cx="245" cy="420" r="0" fill="#F8FAFC">
          <set attributeName="r" to="18" begin="5.0s" fill="freeze" />
          <animate attributeName="cx" from="245" to="452" dur="1.0s" begin="5.0s" fill="freeze" />
          <animate attributeName="cy" from="420" to="300" dur="1.0s" begin="5.0s" fill="freeze" />
        </circle>
        <path d="M245 420 m-18 0 a18 18 0 1 0 36 0 a18 18 0 1 0 -36 0" fill="#D92D20" opacity="0">
          <set attributeName="opacity" to="1" begin="5.0s" fill="freeze" />
          <animateTransform attributeName="transform" type="translate" from="0 0" to="207 -120" dur="1.0s" begin="5.0s" fill="freeze" />
        </path>
        <path d="M245 420 m-18 0 a18 18 0 1 1 36 0" fill="#F8FAFC" opacity="0">
          <set attributeName="opacity" to="1" begin="5.0s" fill="freeze" />
          <animateTransform attributeName="transform" type="translate" from="0 0" to="207 -120" dur="1.0s" begin="5.0s" fill="freeze" />
        </path>
        <path d="M227 420H263" stroke="#0F172A" stroke-width="3" opacity="0">
          <set attributeName="opacity" to="1" begin="5.0s" fill="freeze" />
          <animateTransform attributeName="transform" type="translate" from="0 0" to="207 -120" dur="1.0s" begin="5.0s" fill="freeze" />
        </path>
        <circle cx="245" cy="420" r="5" fill="#0F172A" opacity="0">
          <set attributeName="opacity" to="1" begin="5.0s" fill="freeze" />
          <animateTransform attributeName="transform" type="translate" from="0 0" to="207 -120" dur="1.0s" begin="5.0s" fill="freeze" />
        </circle>
        <circle cx="245" cy="420" r="2.5" fill="#F8FAFC" opacity="0">
          <set attributeName="opacity" to="1" begin="5.0s" fill="freeze" />
          <animateTransform attributeName="transform" type="translate" from="0 0" to="207 -120" dur="1.0s" begin="5.0s" fill="freeze" />
        </circle>
        <circle cx="452" cy="300" r="0" fill="#E0F8D0" opacity="0.8">
          <set attributeName="opacity" to="1" begin="5.95s" fill="freeze" />
          <animate attributeName="r" from="0" to="78" dur="0.22s" begin="5.95s" fill="freeze" />
        </circle>
      </g>

      <g opacity="0">
        <set attributeName="opacity" to="1" begin="6.2s" fill="freeze" />
        <rect x="275" y="185" width="350" height="300" fill="#E8F0DB"/>
        <ellipse cx="520" cy="282" rx="72" ry="28" fill="#B8D49A"/>
        <ellipse cx="368" cy="390" rx="96" ry="42" fill="#A2C27E"/>

        <rect x="290" y="206" width="134" height="54" rx="6" fill="#F8F7E8" stroke="#465A32" stroke-width="3"/>
        <text x="304" y="228" class="pixel badge" fill="#2F3F22">JavaScript</text>
        <text x="392" y="228" class="pixel small" fill="#2F3F22">Lv3</text>
        <text x="304" y="248" class="pixel badge" fill="#9C6B00">HP</text>
        <rect x="334" y="236" width="70" height="10" rx="4" fill="#CFD5C6"/>
        <rect x="334" y="236" width="58" height="10" rx="4" fill="#7FC97F"/>

        <rect x="440" y="334" width="148" height="64" rx="6" fill="#F8F7E8" stroke="#465A32" stroke-width="3"/>
        <text x="454" y="356" class="pixel badge" fill="#2F3F22">Java</text>
        <text x="543" y="356" class="pixel small" fill="#2F3F22">Lv11</text>
        <text x="454" y="376" class="pixel badge" fill="#9C6B00">HP</text>
        <rect x="484" y="364" width="82" height="10" rx="4" fill="#CFD5C6"/>
        <rect x="484" y="364" width="62" height="10" rx="4" fill="#7FC97F"/>
        <text x="454" y="392" class="pixel badge" fill="#9C6B00">EXP</text>
        <rect x="490" y="382" width="76" height="8" rx="4" fill="#CFD5C6"/>
        <rect x="490" y="382" width="44" height="8" rx="4" fill="#E9C46A"/>

        <g transform="translate(516 268)">
          <ellipse cx="0" cy="14" rx="42" ry="16" fill="#83B96C"/>
          <path d="M-32 2C-38 -18 -20 -34 4 -34C26 -34 36 -18 34 0C28 18 10 28 -10 28C-20 28 -28 18 -32 2Z" fill="#F4D35E"/>
          <circle cx="-10" cy="-6" r="5" fill="#2F3F22"/>
          <circle cx="12" cy="-8" r="5" fill="#2F3F22"/>
          <circle cx="-12" cy="-8" r="2" fill="#F8F7E8"/>
          <circle cx="10" cy="-10" r="2" fill="#F8F7E8"/>
          <circle cx="-18" cy="-26" r="8" fill="#F59E0B"/>
          <circle cx="20" cy="-28" r="8" fill="#F59E0B"/>
          <path d="M30 -6L50 -22L42 2Z" fill="#F59E0B"/>
          <path d="M-6 26L10 48L20 22Z" fill="#F59E0B"/>
        </g>

        <g transform="translate(352 386)">
          <ellipse cx="0" cy="18" rx="54" ry="20" fill="#7AA768"/>
          <path d="M-38 0C-40 -24 -16 -42 18 -42C42 -42 62 -24 58 4C48 26 14 40 -18 40C-28 40 -36 28 -38 0Z" fill="#5B6CFF"/>
          <circle cx="18" cy="-12" r="5" fill="#24324A"/>
          <circle cx="34" cy="-4" r="4" fill="#24324A"/>
          <path d="M-18 -10L-36 -34L-10 -24Z" fill="#C7D2FE"/>
          <path d="M6 -20L-6 -44L18 -28Z" fill="#C7D2FE"/>
          <path d="M40 18L66 30L34 36Z" fill="#4F46E5"/>
        </g>
      </g>
    </g>

    <text x="450" y="620" text-anchor="middle" class="pixel big" fill="#F5F3FF">GAME BOY PROFILE</text>
    <text x="450" y="658" text-anchor="middle" class="pixel small" fill="#DDD6FE">integracoes | dados | sistemas</text>

    <text x="240" y="730" class="pixel big" fill="#F5F3FF">PLAYER NAME</text>
    <rect x="236" y="745" width="426" height="2" fill="#C4B5FD" fill-opacity="0.35"/>
    <text x="240" y="792" class="pixel mid" fill="#F5F3FF">Janael Oliveira</text>
    <text x="240" y="830" class="pixel small" fill="#E9D5FF">Elite Dev &amp; UX Architect</text>

    <text x="240" y="900" class="pixel big" fill="#F5F3FF">MAIN QUESTS</text>
    <rect x="236" y="915" width="426" height="2" fill="#C4B5FD" fill-opacity="0.35"/>
    <text x="240" y="960" class="pixel small" fill="#EDE9FE">+ APIs seguras com Java, Node e PHP</text>
    <text x="240" y="995" class="pixel small" fill="#EDE9FE">+ BI, dados e automacao de processos</text>
    <text x="240" y="1030" class="pixel small" fill="#EDE9FE">+ Integracoes com TASY e sistemas legados</text>
    <text x="240" y="1065" class="pixel small" fill="#EDE9FE">+ UX para equipes operacionais</text>

    <text x="240" y="1135" class="pixel big" fill="#F5F3FF">BATTLE STATS</text>
    <rect x="236" y="1150" width="426" height="2" fill="#C4B5FD" fill-opacity="0.35"/>
    <text x="240" y="1192" class="pixel badge" fill="#EDE9FE">SECURITY</text>
    <rect x="390" y="1176" width="220" height="16" rx="8" fill="#2E1065"/>
    <rect x="390" y="1176" width="198" height="16" rx="8" fill="#A78BFA"/>
    <text x="240" y="1226" class="pixel badge" fill="#EDE9FE">AUTOMATION</text>
    <rect x="390" y="1210" width="220" height="16" rx="8" fill="#2E1065"/>
    <rect x="390" y="1210" width="188" height="16" rx="8" fill="#A78BFA"/>
  </g>
</svg>
