<svg width="900" height="1320" viewBox="0 0 900 1320" xmlns="http://www.w3.org/2000/svg">
  <rect width="900" height="1320" fill="#0F172A"/>

  <text x="450" y="48" text-anchor="middle" font-family="Courier New, monospace" font-size="28" font-weight="700" fill="#E9D5FF">JANAEL OLIVEIRA // PROFILE CARTRIDGE</text>

  <path d="M296 84H650C665 84 678 97 678 112V158C678 173 665 186 650 186H438L410 212L416 186H296C281 186 268 173 268 158V112C268 97 281 84 296 84Z" fill="#FFF8DD" stroke="#3F3F46" stroke-width="5"/>
  <text x="322" y="124" font-family="Courier New, monospace" font-size="24" font-weight="700" fill="#27272A">Ola! Sou o Janael</text>
  <text x="322" y="156" font-family="Courier New, monospace" font-size="20" font-weight="700" fill="#27272A">Bem-vindo ao meu mundo tech.</text>

  <g transform="translate(146 78)">
    <circle cx="64" cy="44" r="28" fill="#F2C6A0"/>
    <path d="M28 38C36 14 56 2 76 2C96 2 114 14 120 32L104 42C88 30 72 26 54 34L28 38Z" fill="#D92D20"/>
    <rect x="42" y="72" width="48" height="16" rx="6" fill="#1D4ED8"/>
    <rect x="34" y="88" width="64" height="70" rx="10" fill="#DC2626"/>
    <rect x="46" y="100" width="40" height="34" rx="6" fill="#F5F3FF"/>
    <rect x="24" y="94" width="14" height="52" rx="7" fill="#F2C6A0"/>
    <rect x="94" y="94" width="14" height="52" rx="7" fill="#F2C6A0"/>
    <rect x="106" y="126" width="18" height="18" rx="9" fill="#F8FAFC"/>
    <path d="M106 135H124" stroke="#111827" stroke-width="3"/>
    <circle cx="115" cy="135" r="3" fill="#111827"/>
    <rect x="40" y="158" width="20" height="54" rx="8" fill="#2563EB"/>
    <rect x="72" y="158" width="20" height="54" rx="8" fill="#2563EB"/>
    <rect x="34" y="210" width="34" height="12" rx="6" fill="#111827"/>
    <rect x="66" y="210" width="34" height="12" rx="6" fill="#111827"/>
  </g>

  <rect x="170" y="244" width="560" height="1030" rx="46" fill="#5B21B6"/>
  <rect x="186" y="260" width="528" height="998" rx="34" fill="none" stroke="#8B5CF6" stroke-width="4"/>

  <rect x="246" y="304" width="408" height="404" rx="24" fill="#D6D3C9"/>
  <rect x="276" y="342" width="348" height="302" rx="10" fill="#E5EFDC" stroke="#223A1B" stroke-width="4"/>

  <circle cx="280" cy="322" r="8" fill="#FE5F55"/>
  <circle cx="304" cy="322" r="8" fill="#F0B429"/>
  <circle cx="328" cy="322" r="8" fill="#2ECC71"/>
  <text x="606" y="328" text-anchor="end" font-family="Courier New, monospace" font-size="20" font-weight="700" fill="#5B21B6">battle.seq</text>

  <text x="298" y="378" font-family="Courier New, monospace" font-size="18" font-weight="700" fill="#24351B">&gt; load trainer</text>
  <text x="298" y="406" font-family="Courier New, monospace" font-size="18" font-weight="700" fill="#24351B">loading JS......... ok</text>
  <text x="298" y="434" font-family="Courier New, monospace" font-size="18" font-weight="700" fill="#24351B">loading Java....... ok</text>
  <text x="298" y="462" font-family="Courier New, monospace" font-size="18" font-weight="700" fill="#24351B">loading TASY....... ok</text>
  <rect x="298" y="486" width="250" height="12" rx="6" fill="#B9C6AD"/>
  <rect x="298" y="486" width="220" height="12" rx="6" fill="#5A8F49"/>
  <text x="298" y="524" font-family="Courier New, monospace" font-size="20" font-weight="700" fill="#24351B">READY FOR BATTLE</text>

  <ellipse cx="520" cy="536" rx="72" ry="28" fill="#B8D49A"/>
  <ellipse cx="366" cy="602" rx="96" ry="42" fill="#A2C27E"/>

  <rect x="290" y="364" width="120" height="52" rx="6" fill="#F8F7E8" stroke="#465A32" stroke-width="3"/>
  <text x="304" y="386" font-family="Courier New, monospace" font-size="18" font-weight="700" fill="#2F3F22">JS</text>
  <text x="372" y="386" font-family="Courier New, monospace" font-size="18" font-weight="700" fill="#2F3F22">Lv3</text>
  <text x="304" y="406" font-family="Courier New, monospace" font-size="16" font-weight="700" fill="#9C6B00">HP</text>
  <rect x="330" y="394" width="66" height="10" rx="4" fill="#CFD5C6"/>
  <rect x="330" y="394" width="56" height="10" rx="4" fill="#7FC97F"/>

  <rect x="438" y="534" width="148" height="64" rx="6" fill="#F8F7E8" stroke="#465A32" stroke-width="3"/>
  <text x="452" y="556" font-family="Courier New, monospace" font-size="18" font-weight="700" fill="#2F3F22">Java</text>
  <text x="540" y="556" font-family="Courier New, monospace" font-size="18" font-weight="700" fill="#2F3F22">Lv11</text>
  <text x="452" y="576" font-family="Courier New, monospace" font-size="16" font-weight="700" fill="#9C6B00">HP</text>
  <rect x="478" y="564" width="82" height="10" rx="4" fill="#CFD5C6"/>
  <rect x="478" y="564" width="62" height="10" rx="4" fill="#7FC97F"/>
  <text x="452" y="592" font-family="Courier New, monospace" font-size="16" font-weight="700" fill="#9C6B00">EXP</text>
  <rect x="486" y="582" width="74" height="8" rx="4" fill="#CFD5C6"/>
  <rect x="486" y="582" width="44" height="8" rx="4" fill="#E9C46A"/>

  <g transform="translate(516 522)">
    <ellipse cx="0" cy="18" rx="40" ry="14" fill="#83B96C"/>
    <path d="M-32 2C-38 -18 -20 -34 4 -34C26 -34 36 -18 34 0C28 18 10 28 -10 28C-20 28 -28 18 -32 2Z" fill="#F4D35E"/>
    <circle cx="-10" cy="-6" r="5" fill="#2F3F22"/>
    <circle cx="12" cy="-8" r="5" fill="#2F3F22"/>
    <circle cx="-12" cy="-8" r="2" fill="#F8F7E8"/>
    <circle cx="10" cy="-10" r="2" fill="#F8F7E8"/>
    <circle cx="-18" cy="-26" r="8" fill="#F59E0B"/>
    <circle cx="20" cy="-28" r="8" fill="#F59E0B"/>
    <path d="M30 -6L50 -22L42 2Z" fill="#F59E0B"/>
    <path d="M-6 26L10 48L20 22Z" fill="#F59E0B"/>
  </g>

  <g transform="translate(352 596)">
    <ellipse cx="0" cy="18" rx="54" ry="20" fill="#7AA768"/>
    <path d="M-38 0C-40 -24 -16 -42 18 -42C42 -42 62 -24 58 4C48 26 14 40 -18 40C-28 40 -36 28 -38 0Z" fill="#5B6CFF"/>
    <circle cx="18" cy="-12" r="5" fill="#24324A"/>
    <circle cx="34" cy="-4" r="4" fill="#24324A"/>
    <path d="M-18 -10L-36 -34L-10 -24Z" fill="#C7D2FE"/>
    <path d="M6 -20L-6 -44L18 -28Z" fill="#C7D2FE"/>
    <path d="M40 18L66 30L34 36Z" fill="#4F46E5"/>
  </g>

  <text x="450" y="772" text-anchor="middle" font-family="Courier New, monospace" font-size="34" font-weight="700" fill="#F5F3FF">GAME BOY PROFILE</text>
  <text x="450" y="808" text-anchor="middle" font-family="Courier New, monospace" font-size="22" font-weight="700" fill="#DDD6FE">integracoes | dados | sistemas</text>

  <text x="240" y="886" font-family="Courier New, monospace" font-size="34" font-weight="700" fill="#F5F3FF">PLAYER NAME</text>
  <path d="M236 900H664" stroke="#C4B5FD" stroke-opacity="0.35" stroke-width="2"/>
  <text x="240" y="946" font-family="Courier New, monospace" font-size="28" font-weight="700" fill="#F5F3FF">Janael Oliveira</text>
  <text x="240" y="982" font-family="Courier New, monospace" font-size="22" font-weight="700" fill="#E9D5FF">Elite Dev &amp; UX Architect</text>

  <text x="240" y="1054" font-family="Courier New, monospace" font-size="34" font-weight="700" fill="#F5F3FF">MAIN QUESTS</text>
  <path d="M236 1068H664" stroke="#C4B5FD" stroke-opacity="0.35" stroke-width="2"/>
  <text x="240" y="1112" font-family="Courier New, monospace" font-size="22" font-weight="700" fill="#EDE9FE">+ APIs seguras com Java, Node e PHP</text>
  <text x="240" y="1146" font-family="Courier New, monospace" font-size="22" font-weight="700" fill="#EDE9FE">+ BI, dados e automacao de processos</text>
  <text x="240" y="1180" font-family="Courier New, monospace" font-size="22" font-weight="700" fill="#EDE9FE">+ Integracoes com TASY e sistemas legados</text>
  <text x="240" y="1214" font-family="Courier New, monospace" font-size="22" font-weight="700" fill="#EDE9FE">+ UX para equipes operacionais</text>

  <text x="240" y="1282" font-family="Courier New, monospace" font-size="34" font-weight="700" fill="#F5F3FF">BATTLE STATS</text>
  <path d="M236 1296H664" stroke="#C4B5FD" stroke-opacity="0.35" stroke-width="2"/>
  <text x="240" y="1338" font-family="Courier New, monospace" font-size="18" font-weight="700" fill="#EDE9FE">SECURITY</text>
  <rect x="390" y="1322" width="220" height="16" rx="8" fill="#2E1065"/>
  <rect x="390" y="1322" width="198" height="16" rx="8" fill="#A78BFA"/>
  <text x="240" y="1372" font-family="Courier New, monospace" font-size="18" font-weight="700" fill="#EDE9FE">AUTOMATION</text>
  <rect x="390" y="1356" width="220" height="16" rx="8" fill="#2E1065"/>
  <rect x="390" y="1356" width="188" height="16" rx="8" fill="#A78BFA"/>
</svg>
